<?xml version="1.0" standalone="no"?>
<!DOCTYPE svg PUBLIC "-//W3C//DTD SVG 20010904//EN"
 "http://www.w3.org/TR/2001/REC-SVG-20010904/DTD/svg10.dtd">
<svg version="1.0" xmlns="http://www.w3.org/2000/svg"
 width="1280.000000pt" height="743.000000pt" viewBox="0 0 1280.000000 743.000000"
 preserveAspectRatio="xMidYMid meet">

<g transform="translate(0.000000,743.000000) scale(0.100000,-0.100000)"
fill="#000000" stroke="none">
<path d="M2 6592 c-2 -683 0 -841 11 -850 7 -6 50 -23 95 -37 46 -14 117 -43
160 -65 287 -143 344 -169 403 -184 36 -9 79 -16 96 -16 18 0 44 -10 60 -23
18 -15 74 -35 158 -57 72 -18 155 -41 185 -50 30 -10 80 -23 110 -30 30 -6 80
-20 110 -30 30 -11 127 -40 215 -65 88 -26 189 -56 225 -67 36 -11 94 -28 130
-38 36 -10 104 -32 151 -48 48 -17 104 -32 125 -35 59 -8 72 -16 83 -48 5 -16
13 -29 16 -29 4 0 61 -12 128 -26 67 -14 156 -32 197 -40 41 -9 91 -19 110
-24 19 -5 103 -18 185 -30 83 -11 179 -24 215 -30 61 -9 151 -18 400 -40 58
-5 157 -14 220 -20 63 -7 153 -10 200 -8 l85 3 -3 33 c-2 18 1 32 7 32 6 0 11
8 11 18 0 10 14 39 30 65 17 26 30 54 30 62 0 7 5 17 10 20 6 4 8 10 5 15 -3
4 4 10 15 13 10 3 27 22 37 43 10 21 24 40 32 42 8 3 11 0 7 -7 -4 -6 -1 -11
8 -11 9 0 16 -7 16 -16 0 -27 -50 -174 -81 -240 -16 -33 -29 -67 -29 -75 0
-16 42 -30 160 -54 41 -8 149 -35 240 -60 258 -69 376 -88 498 -82 129 7 164
23 214 97 90 132 97 135 366 121 118 -6 216 -10 217 -9 2 2 -1 68 -5 148 -5
80 -11 267 -15 415 -7 324 -23 884 -30 1085 -3 80 -10 285 -15 455 -5 171 -13
379 -16 463 l-7 152 -1161 0 c-638 0 -1166 -4 -1172 -8 -7 -4 -12 -52 -13
-122 -1 -63 -6 -130 -12 -148 -6 -19 -9 -48 -6 -65 5 -35 -22 -174 -43 -222
-7 -16 -16 -66 -20 -110 -3 -44 -11 -89 -18 -100 -6 -11 -18 -50 -28 -86 -23
-86 -62 -117 -142 -114 -87 3 -90 15 -77 275 4 87 12 146 22 167 16 33 18 96
7 199 -4 41 -2 64 5 68 6 4 11 18 11 30 0 13 7 29 16 37 12 10 14 24 9 68 -3
31 -2 67 4 81 7 18 10 20 10 8 1 -31 21 -20 21 11 l0 29 -1593 1 -1592 1 -3
-838z m2354 702 c20 8 44 -4 44 -20 0 -8 7 -14 15 -14 12 0 15 -10 12 -50 -2
-28 -11 -58 -19 -68 -8 -9 -18 -24 -21 -33 -7 -20 -65 -31 -90 -17 -27 14 -36
48 -30 119 7 76 34 119 61 93 8 -8 21 -13 28 -10z m3254 -74 c0 -16 5 -30 10
-32 16 -5 16 -129 -1 -163 -16 -33 -59 -48 -59 -21 0 9 -4 16 -8 16 -12 0 -32
85 -32 139 0 57 13 99 38 117 14 11 20 10 35 -7 9 -12 17 -34 17 -49z m110
-1315 c0 -8 5 -15 11 -15 5 0 19 -20 30 -44 14 -33 22 -84 29 -203 6 -87 14
-192 18 -233 7 -64 1 -120 -14 -139 -8 -9 -81 86 -117 152 l-27 47 7 200 c6
180 8 202 26 225 23 28 37 32 37 10z"/>
<path d="M9857 7380 c-5 -42 2 -82 19 -108 3 -4 58 34 84 58 9 8 36 30 58 48
23 19 42 38 42 43 0 5 -44 9 -99 9 l-98 0 -6 -50z"/>
<path d="M10564 7418 c-5 -7 -8 -28 -7 -47 0 -19 -6 -41 -13 -49 -8 -7 -14
-24 -14 -36 0 -13 -7 -29 -15 -36 -26 -22 -86 -48 -123 -55 -32 -5 -43 -1 -74
25 -25 20 -38 40 -38 55 0 53 -35 42 -75 -23 -58 -94 -105 -201 -126 -286 -5
-21 -15 -48 -21 -60 -19 -34 -29 -104 -32 -212 -2 -83 0 -99 11 -89 7 7 16 15
21 17 11 4 55 101 70 153 41 147 57 196 80 243 14 28 29 52 34 52 4 0 8 6 8
13 0 21 43 41 97 45 41 3 58 -1 87 -20 20 -13 36 -27 36 -31 0 -5 9 -20 20
-34 11 -14 20 -41 20 -59 0 -47 -20 -134 -31 -134 -5 0 -9 -15 -9 -33 0 -18
-7 -54 -15 -79 -12 -34 -24 -49 -51 -61 -39 -19 -189 -62 -274 -78 -69 -14
-84 -21 -89 -45 -4 -20 -42 -73 -84 -116 -15 -16 -52 -64 -81 -106 -51 -72
-59 -79 -127 -107 -42 -18 -99 -53 -138 -85 -74 -62 -191 -137 -266 -170 -202
-89 -601 -311 -613 -342 -2 -4 -8 -8 -14 -8 -12 0 -101 -69 -106 -82 -2 -5 -9
-8 -15 -8 -7 0 -23 -13 -37 -30 -14 -16 -28 -30 -32 -30 -7 0 -23 -14 -126
-107 -19 -18 -39 -33 -44 -33 -4 0 -8 -5 -8 -11 0 -6 7 -9 15 -5 8 3 15 0 15
-7 0 -8 2 -9 8 -1 4 6 17 14 30 18 12 4 22 12 22 18 0 6 11 8 25 6 13 -3 22
-1 19 3 -3 5 -1 9 5 9 5 0 12 -4 16 -10 3 -5 12 -7 19 -4 15 6 32 -13 22 -23
-10 -10 -149 -45 -193 -48 -23 -2 -63 -14 -90 -28 -26 -14 -81 -35 -121 -48
-41 -13 -76 -27 -79 -31 -2 -5 -12 -8 -21 -8 -10 0 -33 -13 -52 -30 -19 -16
-38 -29 -41 -30 -7 0 -69 -56 -69 -62 0 -2 17 -3 37 -3 28 0 39 -5 41 -17 2
-13 -1 -16 -12 -12 -9 3 -16 2 -16 -2 0 -14 -53 -34 -101 -38 -52 -5 -109 -24
-109 -37 0 -5 -6 -9 -13 -9 -7 0 -24 -11 -39 -25 -15 -14 -31 -24 -35 -23 -5
2 -19 -7 -33 -19 -13 -13 -30 -23 -37 -23 -8 0 -11 -4 -8 -10 3 -5 -3 -10 -15
-10 -12 0 -18 -4 -15 -10 3 -5 -4 -10 -15 -10 -12 0 -34 -8 -48 -18 -15 -10
-39 -24 -55 -32 -20 -10 -24 -16 -15 -22 10 -5 8 -8 -5 -8 -17 0 -57 -19 -67
-31 -3 -4 -15 -9 -27 -13 -13 -4 -23 -11 -23 -16 0 -4 -11 -11 -25 -14 -32 -8
-33 -36 -1 -36 28 0 80 -34 133 -87 21 -21 52 -50 69 -64 16 -13 42 -42 57
-64 15 -22 27 -33 27 -26 0 11 5 10 20 -4 11 -10 20 -24 20 -32 0 -7 6 -13 13
-13 22 0 60 -47 60 -74 0 -15 3 -26 7 -26 4 0 11 -7 14 -15 8 -23 -21 -30 -41
-10 -16 17 -18 16 -26 -9 -5 -14 -15 -26 -24 -26 -9 0 -12 6 -8 19 6 19 -10
28 -62 36 -12 2 -34 12 -49 22 -16 10 -25 13 -22 7 5 -7 -3 -9 -23 -6 -22 3
-27 8 -20 15 6 6 11 19 11 29 0 10 6 18 13 18 6 0 19 13 28 29 15 26 15 28 0
24 -9 -2 -27 7 -40 21 -14 14 -31 26 -38 26 -10 0 -8 -7 7 -22 22 -24 26 -42
8 -35 -7 2 -21 0 -31 -5 -14 -7 -23 -4 -41 16 -12 14 -30 26 -39 26 -10 0 -15
4 -12 10 3 5 -10 16 -30 24 -20 9 -48 25 -62 36 -41 32 -87 23 -48 -10 8 -7
15 -18 15 -25 0 -8 4 -15 8 -17 13 -5 49 -61 56 -88 10 -35 19 -56 55 -129 30
-61 40 -111 23 -111 -4 0 -15 -17 -25 -37 -15 -34 -15 -39 -1 -61 9 -13 14
-33 11 -43 -3 -10 -1 -20 4 -20 5 -1 12 -2 17 -3 4 -1 20 -14 37 -29 24 -23
26 -30 15 -37 -12 -7 -11 -10 4 -16 10 -4 21 -2 26 5 5 9 9 8 14 -4 18 -48 -5
-92 -43 -80 -15 5 -24 -1 -35 -24 -20 -38 -20 -41 2 -41 15 -1 15 -2 -3 -16
-19 -15 -19 -15 10 -8 39 9 47 13 40 25 -14 21 25 7 55 -21 25 -23 42 -30 74
-30 39 -1 40 -1 21 -16 -11 -8 -50 -29 -87 -47 -37 -18 -70 -38 -73 -45 -7
-20 28 -68 103 -139 65 -63 66 -63 124 -63 34 0 72 7 89 15 16 9 33 14 37 11
5 -3 42 -8 83 -11 48 -5 91 -15 121 -31 26 -13 61 -24 78 -24 34 0 99 30 119
54 7 8 35 22 62 31 28 10 62 28 76 41 14 13 34 24 45 24 10 0 21 7 24 15 4 8
13 15 21 15 8 0 -1 -15 -22 -37 l-37 -38 29 -22 c15 -13 31 -23 34 -23 3 0 14
-15 24 -34 22 -41 16 -140 -12 -188 -30 -51 -65 -64 -193 -71 -277 -16 -362
-23 -415 -32 -5 -1 -25 -3 -43 -3 -29 -2 -32 -4 -22 -22 6 -10 26 -31 45 -45
l34 -27 208 22 c114 12 231 24 260 27 125 13 226 -86 254 -246 6 -34 20 -72
30 -85 19 -24 20 -24 71 -10 41 10 54 11 60 1 11 -16 28 9 28 43 0 27 30 95
52 120 16 18 43 35 86 54 36 17 39 28 17 70 -8 15 -15 34 -15 41 0 18 -18 23
-78 19 -112 -8 -199 66 -213 181 -4 28 -14 86 -23 130 -9 44 -21 100 -26 125
-12 63 -19 78 -41 85 -18 6 -17 8 8 34 45 44 133 97 301 180 17 8 32 19 32 22
0 15 245 176 314 207 36 16 150 7 184 -15 13 -8 33 -35 43 -59 31 -69 43 -61
59 39 6 36 25 104 43 149 31 78 37 85 93 123 135 90 265 169 334 202 25 12 63
41 85 65 47 49 154 108 198 108 32 0 32 2 7 -120 -5 -25 -14 -112 -20 -195 -6
-82 -17 -233 -26 -335 -8 -102 -17 -232 -19 -290 -14 -428 -28 -548 -75 -640
-10 -19 -30 -66 -45 -105 -15 -38 -49 -115 -75 -170 -26 -55 -51 -111 -55
-125 -4 -14 -11 -29 -15 -35 -4 -5 -15 -37 -25 -70 -10 -33 -27 -78 -39 -100
-24 -47 -25 -98 -2 -143 17 -33 86 -89 143 -117 17 -8 51 -33 75 -55 24 -22
46 -40 49 -40 3 0 19 -11 35 -25 16 -14 36 -25 45 -25 22 0 69 -63 69 -92 0
-13 -7 -32 -15 -42 -13 -17 -28 -19 -157 -18 -79 1 -156 4 -173 8 -60 13 -163
124 -150 163 3 11 0 21 -8 24 -8 3 -24 32 -36 65 -13 33 -29 63 -36 66 -27 10
-48 -20 -53 -75 -2 -30 -9 -60 -15 -67 -5 -7 -11 -58 -13 -115 -4 -112 -10
-155 -25 -174 -6 -7 -8 -16 -5 -22 3 -5 -25 -42 -64 -83 -38 -40 -70 -76 -70
-79 0 -3 -9 -16 -20 -29 -11 -13 -20 -28 -20 -35 0 -7 -9 -20 -20 -30 -11 -10
-20 -26 -20 -36 0 -10 -11 -30 -25 -45 -14 -15 -25 -38 -25 -51 0 -16 -7 -27
-20 -30 -11 -3 -20 -10 -20 -17 0 -15 -62 -71 -100 -91 -17 -9 -30 -20 -30
-25 0 -5 -18 -15 -40 -21 -28 -9 -57 -30 -94 -71 -30 -32 -59 -58 -64 -58 -6
0 -25 -14 -43 -31 -20 -20 -37 -28 -48 -24 -31 13 -81 18 -81 8 0 -5 -10 -9
-21 -10 -12 -1 -29 -9 -38 -17 -10 -9 -21 -16 -26 -16 -13 0 -77 -52 -71 -58
16 -15 -143 -180 -227 -237 -32 -21 -62 -44 -68 -51 -21 -26 0 -51 59 -69 31
-10 95 -37 140 -61 96 -50 128 -56 118 -21 -4 12 -9 45 -12 72 -7 58 6 76 71
97 25 8 41 20 44 33 7 36 51 90 119 145 38 30 103 87 146 125 80 73 164 124
204 125 13 0 87 -21 165 -46 106 -35 150 -54 175 -77 17 -17 32 -36 32 -43 0
-10 22 -67 53 -134 6 -14 24 -39 40 -56 42 -46 47 -101 14 -156 -35 -59 -74
-98 -98 -98 -25 0 -34 -22 -20 -48 6 -11 12 -48 13 -82 3 -52 0 -64 -18 -78
-26 -22 -54 -67 -54 -87 0 -9 -9 -25 -20 -37 -11 -12 -20 -25 -20 -30 0 -10
240 -11 241 0 0 4 2 77 5 162 5 195 8 218 39 276 32 60 31 79 -3 146 -39 77
-40 123 -6 155 24 22 34 25 78 20 81 -9 156 -37 156 -58 0 -10 -9 -23 -20 -29
-25 -14 -25 -35 0 -85 37 -73 67 -333 41 -361 -19 -20 -30 -80 -22 -121 5 -27
4 -54 -4 -77 l-13 -36 419 0 c231 0 419 3 419 6 0 3 -13 71 -29 152 -16 81
-39 201 -50 267 -12 66 -26 140 -32 165 -5 25 -27 135 -49 245 -21 110 -59
304 -84 432 -61 307 -68 361 -55 407 11 41 45 61 90 52 14 -3 79 -30 143 -60
65 -31 119 -56 121 -56 1 0 55 -25 118 -55 64 -30 162 -75 219 -100 57 -25
114 -52 128 -60 14 -7 48 -22 75 -33 28 -11 75 -31 105 -45 122 -56 301 -137
305 -137 3 0 28 -11 57 -24 29 -13 107 -47 173 -76 66 -29 138 -60 160 -70 22
-10 69 -30 105 -45 96 -40 90 -38 288 -125 100 -44 184 -80 187 -80 2 0 34
-14 70 -31 36 -18 69 -29 72 -25 4 3 7 1518 8 3366 l0 3360 -1112 0 c-865 0
-1113 -3 -1119 -12z m172 -178 c8 0 14 -10 14 -25 0 -14 -4 -25 -9 -25 -5 0
-11 -8 -14 -17 -16 -47 -55 -98 -73 -95 -11 2 -22 8 -25 14 -3 5 -10 8 -15 7
-26 -5 -31 3 -27 44 3 23 6 53 7 66 1 21 7 25 46 28 25 3 47 7 49 9 3 3 11 2
19 -1 7 -3 20 -5 28 -5z m-166 -366 c0 -8 -19 -13 -24 -6 -3 5 1 9 9 9 8 0 15
-2 15 -3z m-20 -58 c0 -7 -7 -19 -15 -26 -8 -7 -15 -29 -16 -49 0 -20 -3 -30
-6 -23 -2 6 -9 10 -14 6 -5 -3 -9 2 -9 10 0 9 5 16 10 16 6 0 10 9 10 20 0 11
5 20 11 20 5 0 7 5 4 10 -7 12 2 30 16 30 5 0 9 -6 9 -14z m221 -1903 c6 -16
8 -46 5 -69 -3 -26 0 -48 8 -60 11 -16 18 -61 18 -114 0 -8 -5 -31 -11 -50
-54 -180 -66 -264 -56 -396 5 -71 12 -100 27 -119 16 -20 23 -23 39 -15 10 6
19 17 19 25 0 8 11 26 23 41 28 32 43 26 63 -22 16 -39 19 -200 4 -209 -5 -3
-10 -19 -10 -36 0 -16 -4 -29 -9 -29 -5 0 -13 -15 -16 -32 -4 -18 -13 -40 -21
-48 -20 -23 -2 -87 35 -121 19 -17 33 -24 37 -17 9 14 43 -30 44 -55 0 -9 4
-25 9 -35 28 -56 51 -134 51 -175 0 -87 -36 -126 -117 -127 -28 0 -55 5 -58
10 -3 6 -17 10 -30 10 -13 0 -27 5 -30 10 -5 8 -12 7 -23 -2 -12 -10 -16 -10
-19 0 -8 21 -23 2 -23 -29 0 -18 -4 -28 -10 -24 -6 4 -10 -8 -10 -29 0 -19 5
-38 10 -41 14 -9 12 -51 -2 -62 -21 -17 -77 -13 -87 4 -5 10 -15 14 -25 10
-11 -4 -15 -3 -10 4 4 7 0 9 -14 5 -12 -4 -33 1 -53 14 -19 11 -44 24 -56 29
-32 14 -101 89 -124 132 -10 21 -23 40 -29 44 -5 3 -10 24 -10 46 0 21 -4 39
-10 39 -16 0 -12 161 5 190 8 14 18 33 21 43 3 9 11 17 17 17 6 0 7 44 2 133
-8 146 -7 140 -36 352 -23 171 -29 236 -29 352 0 45 -5 85 -10 88 -16 10 8 45
31 45 11 0 17 5 14 10 -9 15 42 57 188 151 26 17 47 35 47 40 0 5 5 9 10 9 6
0 38 20 72 45 76 55 122 61 139 18z m-2856 -1463 c-18 -30 -145 -85 -145 -64
0 8 53 58 62 59 3 0 10 3 14 8 11 11 76 9 69 -3z m4435 -1360 c0 -11 -4 -20
-9 -20 -5 0 -7 9 -4 20 3 11 7 20 9 20 2 0 4 -9 4 -20z m46 -7 c7 -10 14 -28
14 -40 0 -17 6 -23 22 -23 33 0 17 -9 -27 -14 -22 -3 -53 -9 -70 -14 -78 -23
-72 26 8 67 15 8 27 20 27 28 0 18 10 16 26 -4z m-3985 -1463 c10 -6 19 -20
19 -32 0 -17 -2 -18 -15 -8 -12 10 -15 9 -15 -5 0 -12 -5 -15 -17 -11 -9 4
-21 1 -26 -6 -6 -9 -7 -8 -3 4 3 10 1 20 -4 23 -16 10 -11 33 8 38 28 8 33 7
53 -3z"/>
<path d="M12376 2055 c-3 -9 0 -15 9 -15 8 0 15 7 15 15 0 8 -4 15 -9 15 -5 0
-11 -7 -15 -15z"/>
<path d="M6520 6290 c0 -5 5 -10 10 -10 6 0 10 5 10 10 0 6 -4 10 -10 10 -5 0
-10 -4 -10 -10z"/>
<path d="M6970 6290 c0 -5 5 -10 10 -10 6 0 10 5 10 10 0 6 -4 10 -10 10 -5 0
-10 -4 -10 -10z"/>
<path d="M5880 6254 c0 -23 25 -84 35 -84 6 0 16 12 22 28 l10 27 11 -27 c16
-38 27 -35 40 11 14 46 15 51 3 51 -5 0 -12 -15 -16 -32 l-7 -33 -11 33 c-13
41 -23 41 -40 0 l-13 -33 -12 33 c-10 28 -22 43 -22 26z"/>
<path d="M6036 6238 c23 -77 34 -85 51 -40 l10 27 11 -27 c15 -37 28 -35 42 7
16 48 6 68 -12 25 l-15 -35 -7 33 c-4 17 -12 32 -17 32 -5 0 -15 -15 -22 -32
l-14 -33 -7 33 c-4 17 -12 32 -17 32 -6 0 -7 -10 -3 -22z"/>
<path d="M6187 6215 c16 -47 36 -55 41 -17 4 30 18 28 26 -3 11 -45 27 -32 50
43 10 32 -8 27 -21 -5 l-10 -28 -11 28 c-15 36 -29 34 -38 -5 l-7 -33 -15 33
c-23 48 -33 39 -15 -13z"/>
<path d="M6360 6213 c0 -24 5 -43 10 -43 6 0 10 15 10 34 0 20 6 36 14 39 20
8 26 -2 26 -40 0 -18 5 -33 10 -33 6 0 10 15 10 33 0 38 6 48 26 40 8 -3 14
-19 14 -39 0 -19 5 -34 10 -34 13 0 13 46 0 70 -8 14 -21 18 -70 17 l-60 -1 0
-43z"/>
<path d="M6520 6215 c0 -25 5 -45 10 -45 6 0 10 20 10 45 0 25 -4 45 -10 45
-5 0 -10 -20 -10 -45z"/>
<path d="M6570 6192 c0 -40 4 -61 10 -57 6 3 10 14 10 24 0 14 6 17 25 13 20
-3 27 1 35 23 15 41 -2 66 -45 62 l-35 -2 0 -63z m70 22 c0 -15 -34 -36 -44
-27 -11 11 -6 51 7 56 15 5 37 -11 37 -29z"/>
<path d="M6691 6251 c-7 -5 -13 -21 -13 -36 0 -42 46 -61 72 -30 14 17 7 19
-20 5 -13 -7 -21 -6 -30 5 -11 13 -7 15 24 15 37 0 47 15 24 38 -14 14 -37 15
-57 3z m47 -19 c2 -7 -6 -12 -17 -12 -21 0 -27 11 -14 24 9 9 26 2 31 -12z"/>
<path d="M6780 6213 c0 -23 5 -43 10 -43 6 0 10 15 10 34 0 20 6 36 14 39 20
8 26 -2 26 -40 0 -18 5 -33 10 -33 12 0 13 59 2 77 -4 6 -22 11 -40 11 -31 -1
-32 -2 -32 -45z"/>
<path d="M6892 6248 c-13 -16 -5 -32 21 -41 10 -4 15 -12 12 -17 -5 -8 -11 -7
-21 1 -17 14 -32 3 -17 -12 16 -16 57 -7 61 13 2 12 -6 21 -23 28 -14 5 -23
14 -20 20 4 7 13 6 27 -1 16 -9 19 -8 16 3 -6 18 -42 22 -56 6z"/>
<path d="M6970 6215 c0 -25 5 -45 10 -45 6 0 10 20 10 45 0 25 -4 45 -10 45
-5 0 -10 -20 -10 -45z"/>
<path d="M7026 6238 c-13 -19 -14 -25 -2 -43 17 -26 49 -31 70 -10 20 21 20
39 0 59 -22 22 -50 20 -68 -6z m59 -23 c0 -23 -34 -33 -45 -14 -13 20 1 40 24
37 13 -2 21 -10 21 -23z"/>
<path d="M7130 6213 c0 -24 5 -43 10 -43 6 0 10 15 10 33 0 19 3 37 7 40 12
13 33 -15 33 -44 0 -16 5 -29 11 -29 11 0 7 59 -5 79 -4 6 -21 10 -37 9 -27
-2 -29 -5 -29 -45z"/>
<path d="M7220 6255 c0 -3 7 -22 15 -43 9 -20 13 -47 10 -59 -10 -41 6 -24 31
33 14 31 23 62 21 68 -3 6 -12 -5 -20 -24 l-16 -35 -11 33 c-7 17 -16 32 -21
32 -5 0 -9 -2 -9 -5z"/>
<path d="M7327 6254 c-15 -15 -6 -24 12 -14 13 7 22 7 26 0 3 -6 -1 -12 -9
-15 -9 -3 -23 -7 -32 -10 -8 -3 -14 -13 -12 -22 2 -13 13 -18 41 -18 l38 -1
-3 41 c-3 34 -6 40 -28 43 -14 2 -29 0 -33 -4z m43 -53 c0 -12 -28 -22 -34
-12 -3 5 -3 11 1 15 9 9 33 7 33 -3z"/>
<path d="M7472 6248 c-7 -7 -12 -21 -12 -33 0 -41 45 -60 70 -30 11 13 8 14
-19 9 -29 -6 -31 -4 -31 21 0 25 2 27 30 22 31 -7 42 6 14 17 -24 9 -39 7 -52
-6z"/>
<path d="M7572 6248 c-7 -7 -12 -21 -12 -33 0 -47 62 -63 81 -21 22 47 -33 90
-69 54z m54 -23 c8 -20 -13 -45 -32 -38 -8 3 -14 16 -14 29 0 17 6 24 20 24
11 0 23 -7 26 -15z"/>
<path d="M7670 6213 c0 -24 5 -43 10 -43 6 0 10 15 10 34 0 38 17 57 31 35 5
-8 9 -26 9 -41 0 -16 5 -28 10 -28 6 0 10 15 10 33 0 19 3 37 7 40 12 13 33
-16 34 -47 0 -28 1 -29 10 -11 7 14 7 30 0 47 -9 24 -14 26 -70 25 l-61 -1 0
-43z"/>
<path d="M6315 6189 c-10 -15 3 -25 16 -12 7 7 7 13 1 17 -6 3 -14 1 -17 -5z"/>
<path d="M7416 6192 c-3 -6 -1 -14 5 -17 15 -10 25 3 12 16 -7 7 -13 7 -17 1z"/>
<path d="M6328 6008 c-14 -27 -18 -363 -5 -440 l8 -47 102 -3 c56 -2 170 -2
254 0 l151 3 -1 252 -2 252 -247 3 -247 2 -13 -22z m230 -121 c11 -12 34 -48
50 -79 l28 -57 27 55 c15 30 27 56 27 58 0 9 -39 12 -54 4 -19 -11 -22 4 -3
20 17 14 147 20 147 7 0 -18 -23 -35 -47 -35 -19 0 -31 -17 -73 -100 -49 -97
-49 -100 -29 -110 11 -7 28 -9 37 -5 13 4 12 1 -4 -15 -18 -19 -25 -20 -44
-10 -19 10 -26 8 -49 -14 -37 -35 -63 -35 -59 1 2 19 12 32 33 42 17 8 37 17
45 21 33 16 -17 152 -71 192 -26 20 -27 22 -11 34 23 18 25 17 50 -9z"/>
<path d="M6538 5629 c-18 -10 -25 -39 -10 -39 5 0 16 8 25 18 28 31 19 42 -15
21z"/>
<path d="M6857 6023 c-4 -3 -7 -118 -7 -255 l0 -248 252 2 252 3 9 35 c13 53
12 410 -1 443 l-12 27 -243 0 c-134 0 -247 -3 -250 -7z m293 -153 c0 -3 -4
-12 -9 -19 -8 -13 -18 -11 -60 12 -27 15 -52 24 -55 19 -3 -5 13 -19 34 -31
22 -12 40 -20 40 -16 0 3 6 1 13 -6 6 -6 43 -27 81 -47 67 -36 94 -62 63 -62
-16 0 -160 68 -212 100 -37 23 -45 24 -45 6 0 -12 47 -39 67 -38 15 1 25 -30
14 -41 -7 -7 -27 -1 -68 21 -64 34 -76 50 -44 59 29 7 58 62 40 74 -10 6 -10
10 0 23 11 13 20 11 77 -17 35 -17 64 -34 64 -37z m-61 -195 c-10 -9 -179 -18
-179 -9 1 25 21 33 85 36 45 2 75 -1 84 -9 8 -7 13 -15 10 -18z"/>
<path d="M6345 5468 c41 -194 160 -398 300 -511 65 -52 172 -110 186 -101 10
6 12 605 2 630 -4 12 -46 14 -250 14 l-245 0 7 -32z m403 -44 c31 -22 28 -41
-18 -90 -38 -41 -40 -47 -40 -105 0 -50 -2 -59 -13 -50 -10 8 -17 7 -26 -2
-11 -10 -12 -5 -9 26 2 20 1 37 -2 37 -4 0 -19 -13 -35 -30 -30 -32 -53 -37
-86 -20 -39 21 -23 53 80 153 54 53 105 97 112 97 8 0 25 -7 37 -16z"/>
<path d="M6675 5406 c-27 -23 -27 -46 -1 -46 17 0 68 55 59 63 -12 13 -29 7
-58 -17z"/>
<path d="M6723 5380 c-19 -19 -30 -37 -26 -47 5 -12 12 -9 35 15 17 16 28 37
26 46 -2 14 -9 12 -35 -14z"/>
<path d="M6640 5345 c-18 -21 -4 -47 22 -43 29 4 35 34 10 47 -15 8 -23 7 -32
-4z"/>
<path d="M6573 5308 l-32 -33 20 -24 c10 -13 19 -17 19 -10 0 7 11 25 25 39
21 22 23 29 12 43 -11 16 -15 15 -44 -15z"/>
<path d="M6606 5270 c-11 -12 -16 -26 -12 -36 6 -15 9 -15 31 6 27 25 33 50
13 49 -7 0 -21 -9 -32 -19z"/>
<path d="M6513 5244 c-13 -35 43 -72 70 -45 16 16 0 26 -18 11 -21 -17 -46 3
-27 22 16 16 15 28 -3 28 -9 0 -18 -7 -22 -16z"/>
<path d="M6540 5220 c0 -5 5 -10 10 -10 6 0 10 5 10 10 0 6 -4 10 -10 10 -5 0
-10 -4 -10 -10z"/>
<path d="M6857 5493 c-9 -8 -9 -643 -1 -643 3 0 42 19 87 42 174 90 321 291
386 525 10 39 17 74 14 77 -8 8 -478 7 -486 -1z m186 -67 c33 -1 34 -9 3 -25
-19 -11 -30 -11 -59 0 -29 10 -39 10 -51 0 -10 -8 -16 -9 -16 -3 0 21 44 43
70 36 14 -4 37 -8 53 -8z m99 -73 c-4 -101 13 -169 41 -167 22 2 22 -8 -3 -37
l-20 -24 -20 23 c-27 33 -42 94 -43 180 -1 39 -4 72 -7 72 -10 0 -45 -41 -70
-84 -22 -36 -22 -38 -3 -32 13 4 26 0 37 -13 16 -18 15 -19 -15 -25 -17 -3
-35 -3 -40 0 -11 7 -16 -43 -8 -74 3 -8 -12 -19 -36 -27 -58 -21 -62 -19 -28
18 39 41 53 68 53 105 0 23 16 46 68 101 90 95 98 94 94 -16z"/>
<path d="M385 5461 c-3 -6 5 -15 17 -22 13 -7 27 -18 31 -25 11 -19 27 -18 27
1 0 8 -7 15 -15 15 -8 0 -15 4 -15 10 0 14 -38 32 -45 21z"/>
<path d="M320 5355 c0 -11 -6 -27 -13 -36 -16 -22 -91 -59 -118 -59 -20 0 -90
44 -97 62 -2 4 -10 4 -18 1 -8 -3 -14 1 -14 10 0 9 -7 14 -18 12 -9 -2 -20 -4
-24 -4 -5 -1 -8 -270 -8 -598 0 -390 4 -593 10 -583 7 12 10 8 11 -15 0 -26 2
-27 9 -10 8 18 9 18 9 2 1 -12 5 -15 13 -11 21 13 108 3 141 -16 30 -18 34
-18 64 -3 18 8 35 24 39 35 4 15 9 17 17 8 9 -8 8 -14 -3 -23 -22 -18 -42 -56
-35 -67 8 -13 42 -13 51 1 3 6 15 8 26 6 17 -5 19 -2 16 17 -6 32 10 51 59 68
47 16 123 12 120 -6 -1 -7 17 -12 46 -14 45 -3 48 -2 58 27 11 32 27 39 46 20
8 -8 17 -7 34 1 19 11 24 10 36 -6 7 -10 13 -25 13 -33 0 -36 14 -42 53 -26
23 9 37 11 37 5 0 -7 6 -8 19 0 23 12 61 13 61 2 0 -4 12 -13 28 -19 28 -13
102 -1 102 15 0 14 -24 32 -42 32 -10 0 -18 7 -18 15 0 12 4 13 19 4 24 -16
51 -5 51 21 0 11 5 20 10 20 6 0 10 -13 10 -29 0 -25 5 -31 31 -36 17 -4 33
-4 36 -1 4 3 -3 6 -15 6 -25 0 -28 10 -10 28 9 9 9 12 0 12 -9 0 -9 5 0 20 7
11 18 20 24 20 7 0 11 16 10 40 -1 48 8 58 56 63 35 3 66 17 40 17 -7 0 -12 7
-12 15 0 8 -6 15 -13 15 -9 0 -12 11 -9 35 5 39 -12 48 -24 13 l-6 -21 -14 24
-13 24 -2 -25 c-1 -22 -2 -22 -10 8 -11 36 -25 42 -34 13 -4 -12 -12 -18 -21
-14 -9 3 -14 -1 -14 -13 -1 -18 -1 -18 -14 -1 -21 27 -59 21 -79 -12 -9 -16
-17 -36 -17 -44 0 -9 -10 -23 -22 -31 -20 -14 -24 -14 -38 0 -13 14 -13 17 2
28 10 7 21 27 24 45 4 17 15 36 26 42 10 5 16 14 14 18 -3 5 -1 23 5 42 26 86
39 142 39 170 0 28 -1 29 -16 15 -8 -9 -19 -16 -23 -16 -4 0 -16 -19 -26 -42
l-19 -43 -3 36 c-3 27 -10 39 -30 48 -16 7 -23 17 -19 26 3 9 -1 15 -10 15 -8
0 -18 9 -22 21 -5 11 -12 20 -17 20 -6 0 -19 2 -29 5 -13 5 -25 -1 -37 -15
-15 -18 -21 -20 -43 -9 -21 9 -25 17 -22 37 2 14 5 38 5 53 1 20 5 26 16 22 8
-4 15 -1 15 6 0 6 4 9 9 6 9 -6 21 27 20 54 0 11 -2 11 -7 -2 -5 -13 -11 -15
-22 -8 -10 7 -12 12 -4 18 6 4 14 27 18 52 3 25 9 56 12 70 3 14 7 52 10 85
l5 60 -22 -45 c-34 -71 -49 -107 -49 -117 0 -11 -54 -143 -89 -218 -16 -33
-32 -72 -35 -87 -4 -16 -12 -28 -19 -28 -6 0 -12 -13 -13 -29 -1 -16 -11 -39
-23 -52 -11 -12 -21 -31 -21 -41 0 -10 -4 -18 -10 -18 -5 0 -10 -7 -10 -15 0
-9 -7 -18 -15 -21 -8 -4 -15 -12 -15 -20 0 -8 -5 -14 -11 -14 -17 0 -2 60 21
85 11 11 21 32 23 45 2 13 9 26 15 28 7 2 10 13 6 28 -3 13 -2 24 3 24 5 0 9
8 10 18 4 80 14 146 21 151 5 3 14 28 21 56 7 27 18 53 24 57 8 5 6 12 -5 25
-12 13 -14 23 -8 33 5 8 10 18 10 23 0 11 -38 9 -45 -3 -3 -5 -15 -10 -25 -10
-11 0 -24 -8 -29 -19 -10 -17 -53 -30 -103 -32 -27 -1 -98 62 -104 90 -3 14
-9 41 -14 60 -8 30 -5 41 22 87 18 29 35 51 39 48 9 -5 21 25 13 37 -3 5 -10
9 -15 9 -6 0 -19 10 -30 23 -18 21 -18 21 -19 2z m640 -721 c0 -8 -5 -12 -10
-9 -6 4 -8 11 -5 16 9 14 15 11 15 -7z m-509 -237 c-10 -9 -11 -8 -5 6 3 10 9
15 12 12 3 -3 0 -11 -7 -18z m593 -12 c-4 -10 0 -15 15 -15 29 0 26 -17 -4
-22 -31 -6 -40 5 -25 32 12 23 22 27 14 5z m116 -145 c0 -5 -7 -10 -16 -10 -8
0 -12 5 -9 10 3 6 10 10 16 10 5 0 9 -4 9 -10z m-807 -51 c4 -16 3 -18 -9 -8
-7 6 -11 15 -8 20 8 13 11 11 17 -12z m662 -49 c-3 -5 -10 -10 -16 -10 -5 0
-9 5 -9 10 0 6 7 10 16 10 8 0 12 -4 9 -10z"/>
<path d="M8330 5300 c0 -5 5 -10 11 -10 5 0 7 5 4 10 -3 6 -8 10 -11 10 -2 0
-4 -4 -4 -10z"/>
<path d="M835 5280 c-9 -27 6 -50 16 -24 4 10 8 25 8 32 1 20 -17 14 -24 -8z"/>
<path d="M2320 4817 c0 -13 -10 -47 -72 -252 -51 -168 -69 -220 -118 -330 -13
-27 -28 -66 -35 -85 -19 -53 -67 -147 -113 -224 -23 -37 -42 -72 -42 -76 0 -5
-3 -10 -7 -12 -12 -5 -79 -120 -85 -143 -4 -19 1 -20 76 -22 45 -1 191 -5 326
-8 297 -9 549 -11 690 -7 58 2 202 3 320 3 118 -1 242 2 275 5 134 12 203 15
498 20 l307 5 0 -25 c0 -20 5 -26 23 -26 12 0 39 -9 60 -20 20 -11 40 -19 44
-18 5 2 25 -8 46 -21 21 -13 40 -21 43 -18 3 3 40 -12 82 -34 43 -21 84 -39
92 -39 12 -1 12 -3 -2 -14 -10 -7 -18 -16 -18 -20 0 -10 102 -7 144 5 55 15
118 -10 152 -61 20 -30 25 -48 23 -89 -2 -28 -6 -51 -11 -51 -4 0 -8 -5 -8
-11 0 -6 6 -9 14 -6 8 3 16 -2 19 -11 5 -20 -19 -47 -28 -32 -11 18 -34 11
-79 -24 -120 -92 -206 -70 -293 72 -21 36 -26 57 -27 117 l-1 74 -42 23 c-24
13 -65 43 -92 68 -42 37 -62 48 -128 63 -181 43 -172 53 -180 -181 -3 -101
-10 -185 -15 -188 -4 -3 -8 -13 -8 -23 0 -18 -36 -58 -55 -62 -52 -9 -53 -36
-5 -146 52 -117 63 -201 31 -220 -17 -11 -27 -10 -58 8 -37 21 -73 52 -73 64
0 4 -11 21 -24 38 -39 54 -56 98 -56 149 0 39 5 52 25 70 14 12 25 29 25 38 0
9 4 20 9 26 11 12 34 249 33 344 -1 105 1 104 -197 93 -163 -8 -1117 -7 -1164
2 -14 3 -123 8 -241 11 -118 3 -228 7 -245 10 -16 3 -81 8 -142 11 -62 3 -113
9 -113 14 0 5 -20 9 -44 9 -40 0 -49 -5 -89 -47 -60 -63 -84 -92 -162 -193
-37 -47 -73 -93 -81 -103 -8 -9 -14 -21 -14 -25 0 -4 -22 -29 -49 -56 -55 -54
-69 -55 -131 -7 -34 26 -72 48 -215 126 -38 21 -82 46 -97 57 -14 10 -30 18
-34 18 -4 0 -37 17 -73 39 -179 104 -225 130 -331 183 -63 32 -120 58 -126 58
-5 0 -32 11 -60 24 -75 37 -89 39 -91 17 -1 -11 7 -27 18 -37 10 -9 19 -23 19
-30 0 -8 8 -10 22 -6 14 3 19 2 14 -6 -4 -7 -2 -13 3 -13 6 -1 17 -2 24 -3 6
-1 17 2 24 7 8 6 14 2 17 -15 17 -77 11 -98 -55 -168 -33 -36 -72 -83 -86
-104 -34 -52 -127 -141 -174 -167 -15 -7 -19 -21 -19 -57 0 -27 4 -52 9 -57 5
-6 26 -40 45 -77 29 -55 38 -87 47 -163 12 -102 0 -191 -27 -202 -8 -3 -14
-11 -14 -19 0 -25 -82 -55 -95 -34 -12 19 -25 10 -26 -17 l-1 -28 -8 30 -8 30
-1 -32 c0 -17 -5 -33 -10 -35 -6 -2 -13 -493 -17 -1275 l-7 -1273 2191 0
c2154 0 2192 0 2192 19 0 11 -3 26 -6 35 -5 12 -10 10 -28 -11 l-22 -25 -13
43 c-7 24 -17 53 -21 64 -20 48 -19 71 0 88 11 9 24 17 29 17 5 0 11 5 13 11
6 18 133 24 180 8 31 -10 43 -10 45 -2 3 7 11 9 19 6 8 -3 20 0 27 5 7 6 35
13 63 16 156 15 186 20 191 32 4 10 26 14 78 14 41 0 76 4 79 8 3 5 38 14 78
21 40 6 143 34 228 61 85 26 191 56 235 65 44 9 103 22 130 30 131 36 208 27
219 -27 3 -15 3 -34 0 -42 -3 -8 7 -38 22 -67 15 -30 30 -66 35 -82 8 -30 -12
-127 -35 -162 -7 -11 -16 -37 -20 -58 -4 -21 -14 -41 -22 -44 -38 -14 -4 -23
95 -23 l110 0 -9 30 c-5 16 -8 78 -8 137 0 94 -3 117 -26 173 -37 90 -37 112
-1 157 91 114 92 115 300 143 50 6 112 16 138 21 100 19 148 5 234 -70 23 -20
95 -63 160 -96 131 -66 148 -81 163 -136 13 -47 30 -51 100 -23 56 23 82 43
113 87 11 16 34 31 60 38 23 6 52 15 65 20 28 11 30 49 2 49 -29 0 -121 38
-158 66 -18 14 -39 41 -47 61 -26 61 9 104 95 117 19 3 82 12 140 21 58 9 170
25 250 36 80 11 206 29 280 40 113 16 520 69 528 69 1 0 2 7 2 15 0 8 4 15 9
15 5 0 28 24 51 53 23 28 69 81 103 117 34 36 70 82 80 102 10 21 25 54 35 74
9 20 46 69 83 108 79 86 98 114 129 186 12 30 48 93 78 139 51 76 56 88 54
133 -1 32 7 76 24 124 14 41 27 88 30 105 8 56 13 84 25 127 6 23 9 45 7 48
-3 2 -23 1 -45 -4 -22 -5 -49 -5 -62 0 -21 7 -130 -6 -436 -53 -79 -13 -154
-23 -365 -48 -96 -12 -185 -23 -196 -26 -12 -3 -106 -14 -210 -25 -104 -11
-227 -24 -274 -30 -47 -6 -166 -19 -265 -30 -99 -11 -218 -24 -265 -30 -47 -6
-128 -15 -180 -20 -52 -6 -138 -16 -190 -22 -141 -16 -158 -14 -194 21 -35 34
-46 65 -76 221 -12 58 -35 159 -51 225 -18 69 -30 141 -29 170 3 70 4 69 -37
40 -37 -24 -80 -31 -115 -17 -13 5 -15 11 -8 22 13 20 13 67 0 75 -5 3 -10 19
-10 35 l0 30 48 -18 c44 -17 47 -20 44 -50 -3 -28 0 -32 21 -32 14 0 44 16 66
35 27 22 48 32 59 28 9 -3 14 -3 10 2 -4 4 -1 22 6 39 7 17 16 53 20 79 8 50
19 57 52 32 10 -8 34 -15 52 -15 36 0 45 -25 12 -35 -38 -12 -52 -75 -17 -75
24 0 51 32 83 100 46 93 74 181 74 227 0 43 20 69 55 74 29 3 55 -11 55 -31 0
-20 33 -53 43 -43 4 3 7 -2 7 -13 0 -15 2 -16 9 -5 7 11 13 9 30 -8 11 -11 21
-28 21 -36 0 -8 7 -15 15 -15 8 0 15 -4 15 -9 0 -13 71 -6 79 8 4 6 6 83 4
171 l-4 158 30 21 c16 12 32 21 35 21 4 0 17 9 29 20 18 18 20 24 9 40 -7 11
-8 20 -3 20 5 0 12 -6 14 -12 4 -10 7 -10 15 0 5 7 16 10 24 7 9 -4 19 -1 24
6 4 8 3 10 -4 5 -7 -4 -12 -2 -12 4 0 6 11 16 25 22 24 11 24 12 8 30 -15 17
-15 20 7 43 l23 25 -36 0 c-19 0 -42 7 -51 15 -13 13 -13 18 0 44 12 23 12 39
4 76 -9 42 -9 49 10 65 11 9 20 25 20 34 0 21 -32 35 -38 17 -6 -17 -39 -51
-51 -51 -4 0 -20 11 -35 25 -35 33 -55 31 -69 -7 -7 -20 -79 -42 -107 -33 -11
4 -20 2 -20 -3 0 -10 -41 -4 -50 7 -3 4 -17 12 -32 18 -21 10 -29 22 -38 67
-6 31 -16 56 -21 56 -6 0 -9 23 -8 53 3 68 -2 137 -8 115 -5 -20 -18 -23 -28
-7 -4 6 -13 8 -21 5 -7 -3 -16 -1 -19 4 -4 6 4 10 17 10 18 0 14 4 -17 20 -49
25 -57 25 -72 1 -15 -24 -43 -18 -95 20 -21 15 -54 30 -73 33 -20 4 -35 13
-35 21 0 14 -43 24 -124 28 -21 2 -43 10 -50 18 -19 25 -59 49 -82 49 -20 0
-34 17 -34 41 0 5 7 9 15 9 21 0 19 7 -10 37 -24 26 -25 26 -45 8 -15 -14 -17
-21 -9 -32 9 -9 9 -13 0 -13 -6 0 -11 5 -11 10 0 6 -7 10 -15 10 -8 0 -15 7
-15 16 0 8 -5 12 -10 9 -6 -3 -14 5 -20 19 -9 25 -23 31 -66 27 -12 -1 -25 6
-28 15 -5 13 -9 14 -21 4 -10 -9 -15 -9 -15 -1 0 6 -5 11 -11 11 -6 0 -8 -7
-5 -15 9 -24 -19 -29 -56 -11 -29 15 -34 15 -44 1 -17 -23 -37 -18 -65 14
l-26 30 -22 -30 c-18 -25 -28 -29 -48 -24 -14 3 -22 2 -19 -3 3 -5 -19 -14
-49 -20 -30 -6 -65 -21 -77 -32 -12 -11 -32 -20 -46 -20 -13 0 -31 -4 -41 -9
-9 -6 -42 -11 -72 -13 -30 -2 -73 -13 -99 -25 -25 -13 -50 -23 -56 -23 -12 0
-31 -35 -36 -65 -2 -11 -8 -20 -15 -20 -19 0 -26 -13 -27 -52 -1 -31 -5 -38
-22 -39 -12 -1 -27 -5 -34 -9 -8 -5 -11 -4 -7 2 4 7 -7 7 -32 0 -32 -9 -44 -8
-65 6 -14 9 -32 17 -41 17 -13 0 -26 19 -35 55 -2 6 -9 15 -17 20 -22 17 6 91
32 87 18 -4 18 -1 -5 24 -54 61 -51 59 -61 43 -7 -12 -9 -12 -9 1 0 13 -2 13
-9 1 -5 -8 -16 -11 -26 -7 -11 4 -25 0 -36 -10 -18 -16 -19 -16 -19 2 0 14 -2
16 -9 5 -7 -11 -12 -11 -32 0 -24 14 -48 19 -81 20 -10 0 -20 4 -23 10 -9 14
-32 11 -50 -7 -13 -14 -14 -19 -3 -25 9 -6 4 -9 -14 -9 -18 0 -28 -5 -28 -15
0 -12 -4 -13 -19 -5 -26 13 -31 13 -31 -5 0 -8 -1 -15 -2 -15 -2 -1 -27 -3
-57 -6 -52 -6 -54 -5 -37 11 25 26 5 33 -55 21 -35 -7 -52 -7 -57 1 -8 11 -52
28 -66 25 -12 -4 -46 29 -46 45 0 13 -17 18 -57 14 -29 -2 -65 17 -57 30 4 6
-12 9 -43 7 -32 -2 -47 -7 -46 -15 5 -23 -13 -14 -25 12 -13 27 -27 32 -35 13
-3 -7 -6 -4 -6 7 -1 16 -3 17 -10 6 -8 -12 -14 -13 -37 -2 -22 9 -29 9 -35 0
-6 -10 -11 -10 -22 -1 -16 14 -157 34 -208 30 -21 -2 -34 -9 -37 -20 -7 -26
-31 -22 -38 7 -4 15 -13 25 -24 25 -11 0 -22 5 -25 10 -12 20 -35 10 -35 -15
0 -14 -4 -25 -10 -25 -5 0 -10 5 -10 11 0 20 -33 39 -47 27 -13 -11 -35 4 -46
32 -4 11 -6 10 -6 -4 -1 -12 -6 -16 -16 -13 -8 4 -17 2 -20 -3 -7 -12 -32 -2
-73 29 -27 20 -35 22 -42 11 -7 -11 -11 -12 -25 0 -8 7 -29 13 -45 12 -20 0
-30 4 -30 14 0 8 -4 14 -10 14 -5 0 -10 -4 -10 -9 0 -17 -32 -21 -60 -6 -16 8
-41 15 -56 15 -15 0 -32 8 -39 17 -9 11 -32 18 -76 21 -35 2 -68 8 -74 13 -5
5 -19 9 -32 9 -14 0 -23 6 -23 15 0 8 -8 15 -18 15 -37 0 -118 34 -147 61 -33
31 -55 37 -55 16z m3585 -492 c41 -7 88 -25 114 -42 14 -9 58 -31 96 -48 79
-35 184 -101 192 -122 3 -7 11 -13 19 -13 36 0 7 -18 -53 -33 -49 -13 -76 -15
-98 -8 -16 5 -26 10 -21 10 11 1 -25 30 -37 31 -5 0 -7 -6 -5 -12 12 -35 -151
-58 -177 -26 -11 14 -23 18 -70 26 -16 2 -36 9 -43 15 -9 7 -17 6 -28 -5 -13
-13 -23 -14 -52 -5 -21 6 -45 17 -54 25 -13 11 -21 12 -31 4 -10 -9 -21 -6
-45 11 -26 18 -32 29 -32 59 0 29 5 38 23 44 12 5 26 7 30 6 4 -1 13 10 20 25
7 16 19 29 27 31 8 2 17 8 18 13 2 5 14 9 27 9 13 0 27 5 30 10 6 10 81 7 150
-5z m-358 -131 c-3 -3 -12 -4 -19 -1 -8 3 -5 6 6 6 11 1 17 -2 13 -5z m-40
-30 c-3 -3 -12 -4 -19 -1 -8 3 -5 6 6 6 11 1 17 -2 13 -5z m46 -11 c-7 -2 -19
-2 -25 0 -7 3 -2 5 12 5 14 0 19 -2 13 -5z m43 -51 c-4 -3 -12 0 -19 7 -9 9
-9 14 3 21 11 7 16 5 18 -6 2 -9 1 -18 -2 -22z m-76 18 c0 -5 -4 -10 -10 -10
-5 0 -10 5 -10 10 0 6 5 10 10 10 6 0 10 -4 10 -10z m860 -50 c0 -5 8 -10 18
-10 9 0 40 -16 67 -36 28 -20 60 -40 73 -45 12 -5 22 -13 22 -19 0 -6 12 -15
28 -21 15 -6 22 -13 16 -16 -15 -5 -104 34 -104 47 0 5 -8 10 -19 10 -10 0
-24 7 -31 15 -7 8 -18 15 -24 15 -15 0 -76 50 -76 61 0 5 7 9 15 9 8 0 15 -4
15 -10z m-302 -280 c17 -8 32 -18 32 -23 0 -8 -79 0 -89 9 -6 6 9 36 17 32 4
-3 22 -11 40 -18z m1142 -230 c0 -5 -4 -10 -10 -10 -5 0 -10 5 -10 10 0 6 5
10 10 10 6 0 10 -4 10 -10z m-1736 -131 c40 -11 82 -49 97 -86 11 -30 -5 -72
-39 -99 -24 -20 -28 -20 -38 -6 -10 13 -15 14 -27 4 -10 -9 -16 -9 -19 -2 -2
6 -11 12 -20 14 -10 1 -20 5 -23 8 -10 9 -45 -3 -45 -16 0 -6 18 -24 40 -39
35 -25 40 -33 38 -62 -2 -37 -8 -37 -71 -10 -43 18 -67 8 -67 -26 0 -11 -4
-19 -10 -19 -5 0 -10 5 -10 11 0 6 -7 4 -15 -5 -18 -18 -11 -62 11 -70 10 -4
12 -2 8 6 -5 8 -2 9 9 5 10 -3 17 -2 17 3 0 6 -4 10 -10 10 -5 0 -10 6 -10 14
0 12 7 13 31 6 18 -5 47 -7 65 -4 35 5 43 -5 21 -28 -32 -33 -57 -72 -57 -89
0 -25 15 -24 40 1 14 14 28 18 44 14 18 -4 30 0 42 15 10 11 21 18 26 15 4 -3
8 1 8 8 0 19 23 68 33 68 4 0 7 8 7 18 0 60 128 222 187 237 29 7 109 -28 122
-53 25 -48 22 -76 -12 -114 -19 -21 -39 -38 -45 -38 -5 0 -13 -6 -16 -12 -3
-10 -9 -8 -19 5 -8 9 -26 17 -39 17 -14 0 -31 7 -38 15 -17 21 -40 19 -40 -4
0 -13 22 -33 65 -60 74 -47 85 -50 85 -18 0 23 17 47 32 47 17 0 7 -29 -21
-59 -16 -17 -24 -31 -18 -31 5 0 3 -8 -6 -18 -10 -10 -17 -24 -17 -30 0 -7 -4
-12 -9 -12 -5 0 -12 -11 -15 -25 -4 -14 -11 -25 -16 -25 -6 0 -10 -7 -10 -15
0 -8 -4 -15 -8 -15 -5 0 -15 -12 -23 -27 -8 -16 -22 -37 -31 -47 -17 -19 -24
-46 -12 -46 17 0 73 33 68 41 -3 5 8 21 24 37 16 16 31 35 34 42 5 17 85 17
102 0 15 -15 20 -13 44 20 l22 30 -20 20 c-11 11 -20 16 -20 12 0 -17 -30 -8
-36 11 -8 24 15 69 32 63 7 -3 10 2 7 14 -3 10 -1 20 5 24 13 8 52 -32 52 -54
0 -10 5 -30 11 -44 9 -19 9 -29 0 -39 -6 -8 -12 -33 -13 -56 -1 -22 -5 -41
-10 -41 -4 0 -8 -8 -8 -19 0 -10 -7 -24 -15 -31 -7 -6 -25 -34 -38 -61 -28
-55 -19 -75 27 -63 15 3 32 2 39 -4 12 -10 76 -27 89 -24 4 1 23 -5 43 -14
l37 -15 -24 -18 c-13 -10 -34 -22 -46 -26 -38 -12 -106 3 -134 30 -15 14 -30
25 -34 25 -4 0 -19 -14 -33 -30 -21 -25 -40 -33 -107 -47 -69 -14 -86 -15
-113 -3 -53 22 -80 49 -87 88 -9 53 -11 53 -55 35 -78 -31 -169 5 -211 83 -20
39 -21 45 -8 84 7 23 25 50 38 61 34 27 8 35 -44 13 -21 -9 -55 -21 -74 -25
-19 -4 -47 -11 -62 -15 -70 -16 -144 29 -188 116 -25 50 -25 76 1 119 33 54
43 61 85 55 40 -5 88 12 78 28 -5 7 10 12 29 9 4 0 27 29 51 66 55 85 90 119
163 154 65 32 73 33 127 18z m1390 -123 c20 -38 14 -76 -13 -76 -38 0 -51 37
-29 85 15 33 20 32 42 -9z m-2303 -516 c35 -11 87 -33 114 -50 28 -16 62 -35
78 -42 15 -7 27 -18 27 -24 0 -35 80 -48 152 -25 45 14 227 17 260 3 23 -10
49 -39 86 -97 29 -46 36 -74 36 -140 0 -55 -6 -81 -26 -124 l-27 -54 25 -32
c13 -18 24 -37 24 -44 0 -7 11 -22 24 -34 58 -54 83 -151 56 -222 -17 -44 -51
-51 -216 -42 -195 11 -648 -4 -723 -24 -19 -4 -69 -6 -110 -2 -67 6 -79 10
-103 35 -15 16 -25 34 -23 41 2 7 6 34 9 61 3 27 13 57 22 67 22 25 27 74 13
118 -17 52 -15 153 5 182 8 14 36 40 61 59 25 18 45 37 45 42 0 4 8 8 17 8 13
0 14 3 5 12 -7 7 -43 15 -81 19 -102 9 -144 48 -159 145 -8 49 -7 62 9 89 47
79 260 119 400 75z m2064 -1102 c14 -16 25 -38 25 -48 0 -21 64 -90 108 -116
60 -35 82 -127 43 -182 -10 -15 -21 -39 -25 -55 -7 -30 -42 -71 -54 -63 -4 2
-28 -9 -52 -25 -30 -20 -54 -29 -77 -27 -40 3 -49 -5 -72 -68 -15 -42 -25 -52
-66 -72 -59 -29 -103 -24 -172 21 -26 17 -51 30 -56 29 -4 -1 -12 9 -17 22 -6
17 -22 29 -50 37 -27 8 -40 18 -40 30 0 12 5 16 15 13 17 -7 21 11 5 21 -5 3
-10 17 -10 30 0 13 -4 26 -9 29 -10 6 -3 56 11 73 38 48 226 76 267 39 19 -18
21 -18 27 -1 9 21 54 71 54 59 0 -10 20 17 20 27 0 6 -35 6 -109 1 -15 -1 -21
-7 -18 -16 4 -10 -7 -15 -41 -21 -106 -15 -181 -24 -252 -29 -41 -3 -104 -10
-140 -16 -36 -6 -134 -15 -217 -21 -175 -11 -197 -5 -209 57 -12 64 19 134 60
134 7 0 29 6 47 14 42 17 213 51 334 66 50 6 125 18 168 26 44 8 82 12 86 9 9
-5 148 17 271 43 99 21 112 19 145 -20z m-6446 -132 c43 -23 132 -143 166
-226 4 -8 15 -33 26 -54 11 -22 22 -65 25 -95 3 -31 8 -63 11 -71 15 -39 26
-117 33 -240 5 -74 13 -157 18 -185 10 -51 5 -122 -8 -130 -15 -9 -27 22 -40
100 -7 44 -18 96 -25 115 -8 19 -19 59 -25 89 -5 29 -26 86 -45 126 -18 40
-37 84 -41 99 -3 14 -10 26 -14 26 -5 0 -13 19 -18 43 -36 147 -58 206 -131
332 -26 46 -27 51 -12 67 20 21 44 22 80 4z m4432 -401 c24 -9 52 -27 62 -41
28 -38 25 -107 -7 -155 -15 -21 -30 -39 -34 -40 -116 -16 -177 19 -188 108 -7
50 22 102 67 125 43 21 46 21 100 3z m2269 -70 c0 -7 13 -18 29 -23 16 -6 35
-21 42 -34 7 -12 18 -29 26 -36 7 -7 13 -20 13 -28 0 -8 4 -14 9 -14 5 0 22
-13 38 -30 15 -16 32 -30 38 -30 5 0 19 -24 30 -53 19 -49 19 -53 3 -69 -12
-12 -27 -15 -52 -11 -20 3 -33 9 -30 14 3 5 -1 9 -9 9 -19 0 -77 51 -77 67 0
7 -3 13 -8 13 -4 0 -16 17 -27 38 -11 20 -26 43 -32 50 -7 7 -13 20 -13 28 0
8 -12 37 -27 65 -19 38 -23 53 -14 58 18 11 61 1 61 -14z m200 -448 c64 -45
77 -59 93 -102 10 -27 24 -53 30 -58 21 -13 -31 -47 -72 -47 -51 1 -138 39
-215 96 -53 38 -68 56 -77 86 -8 32 -7 42 8 63 42 58 110 47 233 -38z m-6610
-128 c0 -11 -4 -17 -10 -14 -5 3 -10 15 -10 26 0 11 5 17 10 14 6 -3 10 -15
10 -26z m27 -191 c-3 -7 -5 -2 -5 12 0 14 2 19 5 13 2 -7 2 -19 0 -25z"/>
<path d="M5730 2765 c0 -2 9 -9 20 -15 15 -8 20 -8 20 3 0 7 -9 13 -20 14 -11
1 -20 0 -20 -2z"/>
<path d="M4761 2514 c-35 -12 -66 -26 -69 -29 -10 -9 17 -23 88 -44 119 -36
144 -41 154 -31 16 16 -28 81 -71 106 l-38 22 -64 -24z"/>
<path d="M6471 1368 c0 -10 -6 -18 -13 -18 -9 0 -9 -3 0 -12 16 -16 25 -5 19
24 -3 14 -5 16 -6 6z"/>
<path d="M4346 4482 c-10 -17 11 -29 52 -28 23 0 42 4 42 8 0 4 -7 8 -15 8 -8
0 -15 5 -15 10 0 12 -57 14 -64 2z"/>
<path d="M7335 4410 c3 -5 8 -10 11 -10 2 0 4 5 4 10 0 6 -5 10 -11 10 -5 0
-7 -4 -4 -10z"/>
<path d="M4144 4399 c-3 -5 6 -9 20 -9 31 0 34 6 6 13 -11 3 -23 1 -26 -4z"/>
<path d="M1310 4380 c0 -5 4 -10 9 -10 6 0 13 5 16 10 3 6 -1 10 -9 10 -9 0
-16 -4 -16 -10z"/>
<path d="M9846 4236 c-19 -78 -14 -129 19 -170 l22 -28 7 43 c7 48 -9 198 -23
212 -4 4 -16 -21 -25 -57z"/>
<path d="M1248 4143 c6 -2 18 -2 25 0 6 3 1 5 -13 5 -14 0 -19 -2 -12 -5z"/>
<path d="M1145 4110 c-9 -15 21 -23 53 -15 l27 8 -25 7 c-36 11 -48 11 -55 0z"/>
<path d="M328 3843 c7 -3 16 -2 19 1 4 3 -2 6 -13 5 -11 0 -14 -3 -6 -6z"/>
<path d="M10 3630 c0 -92 4 -160 9 -160 5 0 12 -8 14 -17 3 -13 5 -12 6 5 0
13 5 21 10 18 10 -6 14 17 31 159 9 77 9 91 -4 101 -9 6 -13 14 -9 17 3 4 -1
7 -10 7 -9 0 -17 7 -17 15 0 8 -7 15 -15 15 -13 0 -15 -24 -15 -160z"/>
<path d="M9718 3681 c-16 -15 -28 -33 -28 -38 0 -6 -5 -13 -12 -15 -17 -6 21
-58 42 -58 10 0 22 9 25 20 3 11 10 20 14 20 4 0 13 16 20 36 11 32 11 37 -6
49 -24 19 -24 19 -55 -14z"/>
<path d="M7250 3685 c0 -8 4 -15 10 -15 5 0 7 7 4 15 -4 8 -8 15 -10 15 -2 0
-4 -7 -4 -15z"/>
<path d="M7298 3583 c6 -2 18 -2 25 0 6 3 1 5 -13 5 -14 0 -19 -2 -12 -5z"/>
<path d="M8775 3444 c12 -163 20 -191 71 -243 23 -22 25 -23 49 -7 48 31 77
104 50 126 -8 7 -15 21 -15 32 0 19 -31 70 -55 93 -12 11 -91 55 -99 55 -3 0
-4 -25 -1 -56z"/>
<path d="M9761 3464 c0 -11 3 -14 6 -6 3 7 2 16 -1 19 -3 4 -6 -2 -5 -13z"/>
<path d="M9727 3433 c-12 -21 -16 -63 -7 -63 5 0 10 15 11 33 0 27 2 29 9 12
7 -16 9 -17 9 -3 1 18 -15 33 -22 21z"/>
<path d="M4896 3342 c-3 -3 -5 -21 -5 -41 1 -20 3 -28 6 -18 5 20 14 22 31 5
9 -9 12 -5 12 19 0 22 -5 32 -19 36 -11 3 -22 2 -25 -1z"/>
<path d="M4951 3314 c0 -11 3 -14 6 -6 3 7 2 16 -1 19 -3 4 -6 -2 -5 -13z"/>
<path d="M7412 3309 c2 -7 10 -15 17 -17 8 -3 12 1 9 9 -2 7 -10 15 -17 17 -8
3 -12 -1 -9 -9z"/>
<path d="M4744 3276 c-7 -28 14 -75 25 -57 5 8 14 5 28 -8 13 -13 29 -18 43
-14 20 5 19 7 -14 35 -19 15 -38 37 -41 48 -9 28 -33 25 -41 -4z"/>
<path d="M8712 384 c-47 -20 -69 -54 -68 -104 1 -50 -8 -47 120 -50 45 -1 61
2 68 14 5 9 16 16 23 16 22 0 18 39 -9 90 -23 42 -27 45 -66 45 -23 1 -53 -5
-68 -11z"/>
<path d="M4488 197 c-8 -8 -23 -17 -34 -19 -10 -2 -19 -8 -20 -13 0 -6 -5 -27
-12 -48 -6 -21 -9 -44 -6 -52 3 -7 1 -16 -5 -20 -6 -3 -11 -14 -11 -24 0 -13
8 -18 32 -19 18 0 36 5 40 11 6 9 8 9 8 0 0 -10 58 -13 258 -13 l259 0 -2 22
c-1 12 -10 25 -21 29 -11 4 -26 14 -33 23 -7 9 -19 16 -25 16 -6 0 -17 9 -24
20 -9 16 -23 20 -62 20 -35 0 -52 5 -58 16 -6 11 -17 15 -31 11 -11 -3 -21 -1
-21 4 0 5 -6 9 -14 9 -7 0 -19 7 -26 15 -7 8 -22 14 -34 13 -11 -1 -48 2 -82
6 -48 6 -64 4 -76 -7z"/>
<path d="M4320 80 c0 -5 7 -10 16 -10 8 0 12 5 9 10 -3 6 -10 10 -16 10 -5 0
-9 -4 -9 -10z"/>
</g>
</svg>
